<svg id="ejIViueFrSp1" xmlns="http://www.w3.org/2000/svg" xmlns:xlink="http://www.w3.org/1999/xlink" viewBox="0 0 300 300" shape-rendering="geometricPrecision" text-rendering="geometricPrecision"><ellipse rx="30.572118" ry="30.572118" transform="matrix(.572417 0 0 0.572417 150.000001 150.000001)" fill="#fff" stroke-width="0"/><ellipse rx="30.572118" ry="30.572118" transform="matrix(.572417 0 0 0.572417 150.000001 100.000001)" fill="#fff" stroke-width="0"/><ellipse rx="30.572118" ry="30.572118" transform="matrix(.572417 0 0 0.572417 200.000001 150.000001)" fill="#fff" stroke-width="0"/><ellipse rx="30.572118" ry="30.572118" transform="matrix(.572417 0 0 0.572417 100.000001 150.000001)" fill="#fff" stroke-width="0"/><ellipse rx="30.572118" ry="30.572118" transform="matrix(.572417 0 0 0.572417 200.000001 100.000001)" fill="#fff" stroke-width="0"/><ellipse rx="30.572118" ry="30.572118" transform="matrix(.572417 0 0 0.572417 200.000001 200.000001)" fill="#fff" stroke-width="0"/><ellipse rx="30.572118" ry="30.572118" transform="matrix(.572417 0 0 0.572417 150.000001 200.000001)" fill="#fff" stroke-width="0"/><ellipse rx="30.572118" ry="30.572118" transform="matrix(.572417 0 0 0.572417 100.000001 200.000001)" fill="#fff" stroke-width="0"/><ellipse rx="30.572118" ry="30.572118" transform="matrix(.572417 0 0 0.572417 100.000001 100.000001)" fill="#fff" stroke-width="0"/></svg>
